<svg xmlns="http://www.w3.org/2000/svg" width="495.344" height="494.156" viewBox="0 0 495.344 494.156">
  <defs>
    <style>
      .cls-1 {
        fill: #8e7c58;
        fill-rule: evenodd;
      }
    </style>
  </defs>
  <path id="new_vector_shape_done" class="cls-1" d="M235.5,9h40c6.812,1.609,14.929,1.165,22,3,15.619,4.054,31.077,6.251,45,12C408.731,51.347,456.179,95.264,484,161c6.155,14.545,10.443,30.62,15,47.5,2.412,8.934,1.9,19.065,4,28v13c0,9.455.845,21.157-1,29-1.625,6.908-.282,12.987-2,19.5-5.106,19.354-8.681,37.72-16,54.5C455.315,418.262,405.194,464.13,336.5,490c-12.359,4.654-26.067,6.62-39.5,10-7.721,1.943-16.589,1.256-24,3H263c-9.009,0-20.084.74-27.5-1-7.037-1.651-14.706-.236-21.5-2-8.526-2.214-18.059-3.109-26.5-6-9.8-3.357-20.065-7.1-29-11C99.128,457.048,58.275,415.962,30,359c-5.858-11.8-8.644-24.145-13-37.5A191.6,191.6,0,0,1,8,263c0-8.859-.707-19.726,1-27l1-14.5c4.14-17.117,6.218-33.8,12-49C48,104.132,95.284,55.667,161,27c14.474-6.314,30.6-9.764,47-14,6.476-1.673,13.211-1.559,19.5-3C230.577,9.295,233.413,10.406,235.5,9Zm7,24.5-25,2.5c-14.908,3.675-30.343,5.879-43,12-18.575,8.984-36.6,17.463-52.5,29-3.7,2.686-6.877,6.768-10.5,9.5C80.7,109.723,61.444,143.25,45,181c-5.629,12.923-6.881,27.406-10.5,42.5L33,241v9c-1.218,5.688-.779,17.847.5,23.5q0.25,5.75.5,11.5c2.852,12.028,4.225,24.68,8,35,4.157,11.365,6.864,21.808,12,32,25.316,50.241,62.768,86.051,115.5,109,13.2,5.743,27.419,9.919,43,14,7.81,2.046,16.259,1.234,24,3h10a54.082,54.082,0,0,0,18,0h10c5.666-1.288,12.058-.525,18-2,12.353-3.066,24.568-4.489,35.5-9,11.494-4.743,23.359-9.128,34-15,45.842-25.3,79.393-63.4,101-113,6.21-14.255,8.977-29.335,13-46,1.331-5.513.822-11.354,2-16.5V268c1.3-6.066,1.366-17.941,0-24v-8.5c-1.216-5.34-.589-11.315-2-17-1.224-4.931-1.418-10.833-3-16-2.275-7.431-5.386-15.629-8-22.5-21.138-55.563-56.8-95.159-106.5-122-14.9-8.045-31.944-13.284-49-19-4.529-1.518-8.626-.794-13.5-2C280.624,33.2,261.629,33.534,242.5,33.5ZM221,392V267c-6.13-2.038-23.648-.537-31.5-0.5v-43a1.708,1.708,0,0,0,1-.5,47.955,47.955,0,0,0,15.5,0c4.9-1.077,11.436.585,15,0V187c0.844-1.532.191-6.469,1-9.5,1.686-6.318,3.238-13.508,6.5-18.5,13.618-20.839,43.387-18.126,77.5-18,1.163,3.512.5,9.617,0.5,14v29c-6.061,2.019-19.6.54-27,.5-3.7,2.3-7.952,1-9.5,5.5-3.649,4.035-2.063,24.925-2,33a7.855,7.855,0,0,0,2.5.5c1.727-1.106,6.371-.5,9-0.5,8.152,0,21.238-1.786,27.5,1-1.557,8.708-1.584,19.434-3.5,28-0.976,4.366.66,10.675-1.5,14-1.834,1.151-6.75.5-9.5,0.5h-24c-0.983,2.992-.5,8.174-0.5,12v113c-3.908,1.293-10.694.5-15.5,0.5H221Z" transform="translate(-7.844 -9)"/>
</svg>
