<svg xmlns="http://www.w3.org/2000/svg" width="495.344" height="494.156" viewBox="0 0 495.344 494.156">
  <defs>
    <style>
      .cls-1 {
        fill: #727272;
        fill-rule: evenodd;
      }
    </style>
  </defs>
  <path id="new_vector_shape_done.svg" class="cls-1" d="M235.5,9h40c6.812,1.609,14.929,1.165,22,3,15.619,4.054,31.077,6.251,45,12C408.731,51.347,456.179,95.264,484,161c6.155,14.545,10.443,30.62,15,47.5,2.412,8.934,1.9,19.065,4,28v13c0,9.455.845,21.157-1,29-1.625,6.908-.282,12.987-2,19.5-5.106,19.354-8.681,37.72-16,54.5C455.315,418.262,405.194,464.13,336.5,490c-12.359,4.654-26.067,6.62-39.5,10-7.721,1.943-16.589,1.256-24,3H263c-9.009,0-20.084.74-27.5-1-7.037-1.651-14.706-.236-21.5-2-8.526-2.214-18.059-3.109-26.5-6-9.8-3.357-20.065-7.1-29-11C99.128,457.048,58.275,415.962,30,359c-5.858-11.8-8.644-24.145-13-37.5A191.6,191.6,0,0,1,8,263c0-8.859-.707-19.726,1-27l1-14.5c4.14-17.117,6.218-33.8,12-49C48,104.132,95.284,55.667,161,27c14.474-6.314,30.6-9.764,47-14,6.476-1.673,13.211-1.559,19.5-3C230.577,9.295,233.413,10.406,235.5,9Zm7,24.5-25,2.5c-14.908,3.675-30.343,5.879-43,12-18.575,8.984-36.6,17.463-52.5,29-3.7,2.686-6.877,6.768-10.5,9.5C80.7,109.723,61.444,143.25,45,181c-5.629,12.923-6.881,27.406-10.5,42.5L33,241v9c-1.218,5.688-.779,17.847.5,23.5q0.25,5.75.5,11.5c2.852,12.028,4.225,24.68,8,35,4.157,11.365,6.864,21.808,12,32,25.316,50.241,62.768,86.051,115.5,109,13.2,5.743,27.419,9.919,43,14,7.81,2.046,16.259,1.234,24,3h10a54.082,54.082,0,0,0,18,0h10c5.666-1.288,12.058-.525,18-2,12.353-3.066,24.568-4.489,35.5-9,11.494-4.743,23.359-9.128,34-15,45.842-25.3,79.393-63.4,101-113,6.21-14.255,8.977-29.335,13-46,1.331-5.513.822-11.354,2-16.5V268c1.3-6.066,1.366-17.941,0-24v-8.5c-1.216-5.34-.589-11.315-2-17-1.224-4.931-1.418-10.833-3-16-2.275-7.431-5.386-15.629-8-22.5-21.138-55.563-56.8-95.159-106.5-122-14.9-8.045-31.944-13.284-49-19-4.529-1.518-8.626-.794-13.5-2C280.624,33.2,261.629,33.534,242.5,33.5Zm-46.5,95h69.5c10.806,0,24.7-1.754,34.5.5l28,0.5c4.872,1.3,11.071,1.679,16,3.5,9.376,3.464,19.541,9.516,25,17,6.724,9.219,9,20.1,12.5,33q0.25,14.5.5,29c1.008,4.623.5,11.533,0.5,17v33.5c0,48.7,3.474,90.507-27,109.5-13.706,8.543-34.855,9.5-57,9.5h-28c-12.383,2.695-29.836,0-43,0-25.884,0-54.118,1.371-70.5-8.5-11.868-7.151-20.3-19.143-25-33.5-1.233-3.769-1.186-7.493-2-11V319c-1.3-5.794.51-14.576-1-21.5-1.008-4.623-.5-11.533-0.5-17V248q0.25-15.748.5-31.5c0-8.257-.594-18.3,1-25V182c1.281-5.674,1.892-11.857,4-17,7.362-17.956,20.312-28.313,40-34C177.206,130.074,192.977,130.408,196,128.5ZM335,154c-1.58,1.163-3.519,1.115-5.5,2-4.056,1.813-8.076,7.074-9.5,11.5-3.8,11.807,8.618,27.209,20.5,24,6.573-1.775,12.556-5.626,15-11.5C361.689,165.123,348.555,153.694,335,154Zm-83.5,21.5c-3.23,1.969-8.478.273-12.5,1.5-3.841,1.172-8.477,2.446-12.5,4-21.839,8.433-38.465,26.245-46.5,48.5-1.553,4.3-2.009,8.585-3,13-2.476,11.027-.589,25.32,2.5,34,0.912,2.563.423,4.516,1.5,7,9.592,22.121,24.668,37.482,48,46,7.686,2.806,27.267,7.938,39,4.5,5.644-1.654,11.982-2.7,17.5-5,18.634-7.754,36.045-23.632,43.5-42.5,2.418-6.12,3.867-12.742,5.5-19.5,3.4-14.09-1.685-32.439-5.5-41.5C316.752,196.409,292.66,175.469,251.5,175.5Z" transform="translate(-7.844 -9)"/>
</svg>
