<svg xmlns="http://www.w3.org/2000/svg" width="275.656" height="492.125" viewBox="0 0 275.656 492.125">
  <defs>
    <style>
      .cls-1 {
        fill: #727272;
        fill-rule: evenodd;
      }
    </style>
  </defs>
  <path id="pdf-default.svg" class="cls-1" d="M34.5,10h165c1.59,3.123,4.519,4.875,6.5,7.5,4.664,6.182,10.427,11.439,15,17.5,14.078,18.661,30.939,34.826,45,53.5,4.567,6.065,10.342,11.313,15,17.5,1.2,1.594,4.192,3.174,5,5V377c-2.152,2.508-2.249,7.188-4,10a34.026,34.026,0,0,1-12,11c-10.82,5.561-37.569,3-53.5,3H94.5c-24.84,0-58.951,3.833-73.5-7-10.038-7.474-10-21.156-10-39V54.5c0-9.38-.953-20.4,2-27A33.955,33.955,0,0,1,26.5,13C28.879,11.732,32.739,11.882,34.5,10Zm237,116h-43c-7.574,0-16.3.866-22.5-1-8.9-2.679-17.047-9.9-20-18.5-2-5.837-1-15.13-1-22.5V45c0-6.651.583-14.687-.5-20.5H37.5C32.584,27.8,28.23,27.694,26,34c-1.809,5.117-.5,13.925-0.5,20V357.5c0,13.235-.64,23.029,8,27.5,4.836,2.5,19.943,1,27,1H227c10.919,0,32.627,2.087,39-2.5,5.683-4.091,5.5-12.066,5.5-22V126ZM199,32.5v52c0,9.817-.443,18.749,5,23,4.947,3.863,12.37,3.5,21.5,3.5h41v-1c-2.469-1.673-3.715-4.126-5.5-6.5-3.64-4.841-8.265-9.039-12-14-2.542-3.376-6.456-6.126-9-9.5-7.444-9.874-15.872-18.826-24-28C212.438,47.979,203.354,34.069,199,32.5ZM141.5,169h14v1c1.417,2.3.5,8.695,0.5,12V327.5h1c2.534-3.854,6.771-6.771,10-10L190.5,294c2.846-2.846,8.459-10.66,12.5-11.5,2.518,3.7,9.018,5.689,10,10.5l-47.5,47c-3.657,3.657-13.241,15.461-17.5,17l-47-47.5c-3.275-3.275-16.175-14.084-17-18,3.668-2.435,6.831-8.029,11.5-9,2.538,3.853,6.77,6.77,10,10L128,315c3.216,3.216,8.81,11,13,12.5V170A1.808,1.808,0,0,0,141.5,169ZM20.5,423H260c7.172,0,16.707-1.044,21,2,5.62,3.985,5,11.761,5,21.5v47c-3.106,2.668-4.193,6.878-8.5,8.5H35c-6.778,0-15.021.836-19-2-8.179-5.83-5-37.53-5-52V431.5C12.808,426.77,16.8,425.855,20.5,423ZM76,440v49H89V473.5c2.561-.871,7.124-0.539,10.5-0.5,3.976-2.654,8.783-1.663,11.5-5.5,1.514-2.138,1.271-3.868,2-7C118.112,438.549,95.317,439.651,76,440Zm52.5,0c-1.292,3.908-.5,10.694-0.5,15.5v33c5.586,1.867,15.4.542,22,.5,2.484-1.589,6.659-.741,9.5-2a25.747,25.747,0,0,0,9.5-7.5,32.662,32.662,0,0,0,4-9c1.469-5.58-.546-12.991-2-16C163.485,438.95,151.138,439.7,128.5,440Zm60.5,0v49h13V470.5c3.865-1.3,10.73-.541,15.5-0.5a1.808,1.808,0,0,1,1-.5v-10h-1c-2.705-1.734-11.152-.567-15-0.5-0.62-1.805-.535-4.942-0.5-7.5,4.261-1.432,11.809-.541,17-0.5,0.871-2.561.539-7.124,0.5-10.5C212.682,438.233,197.264,439.96,189,440ZM89.5,451a20.9,20.9,0,0,1,9.5,1.5,14.618,14.618,0,0,1,1,6.5,4.759,4.759,0,0,0-1.5,2,58.905,58.905,0,0,1-9,1C88.615,459.535,88.633,453.466,89.5,451Zm53,0c4.126-.045,6.572.71,10,1,2.28,2.732,5.252,4.061,6.5,8,2.466,7.781-1.888,16.425-8.5,17-1.722,1.2-5.076,1.061-8,1C141.128,474,141.14,455.009,142.5,451Z" transform="translate(-10.375 -10)"/>
</svg>
